<?xml version="1.0"?>
<svg width="1280" height="840" xmlns="http://www.w3.org/2000/svg" xmlns:svg="http://www.w3.org/2000/svg" preserveAspectRatio="xMidYMid meet">
 <metadata>Created by potrace 1.15, written by Peter Selinger 2001-2017</metadata>
 <g class="layer">
  <title>Layer 1</title>
  <g fill="#000000" id="svg_1" transform="translate(0 840) scale(0.1 -0.1)">
   <path d="m2315,8399c-279,-34 -537,-128 -765,-280c-131,-86 -325,-282 -413,-414c-70,-107 -161,-289 -196,-394c-183,-544 -118,-1159 190,-1799c100,-209 156,-307 296,-520c215,-329 392,-549 663,-826c403,-412 817,-718 1305,-966c522,-265 1108,-431 1520,-430c158,1 143,12 -97,74c-445,115 -700,208 -1063,386c-350,172 -652,365 -950,608c-554,452 -1034,1044 -1350,1667c-204,401 -298,729 -312,1081c-18,468 130,874 419,1149c440,419 1124,490 1753,181c235,-115 416,-247 631,-461c264,-263 444,-524 640,-930c217,-450 355,-888 569,-1820c197,-855 332,-1350 365,-1330c18,11 -18,292 -116,910c-132,830 -217,1247 -334,1655c-208,721 -514,1291 -920,1713c-377,392 -816,638 -1300,727c-133,25 -408,34 -535,19z" fill="#0000ff" id="svg_2"/>
   <path d="m7313,8029c-417,-37 -826,-295 -1123,-709c-263,-367 -459,-880 -539,-1410c-36,-243 -45,-371 -45,-650c1,-477 50,-862 159,-1255c50,-178 116,-345 136,-345c15,0 10,78 -21,321c-74,594 -85,1080 -34,1544c105,956 517,1757 1058,2060c87,49 190,90 293,116c73,19 113,23 233,23c129,-1 155,-4 235,-28c488,-148 787,-673 736,-1293c-52,-632 -356,-1211 -932,-1779c-245,-241 -390,-361 -745,-620c-214,-156 -242,-179 -230,-191c20,-21 330,119 526,237c506,306 934,704 1226,1142c221,332 371,707 430,1078c26,163 24,452 -5,605c-77,422 -281,752 -591,962c-215,145 -496,216 -767,192z" fill="#0000ff" id="svg_3"/>
   <path d="m10205,7963c-78,-7 -251,-44 -305,-66c-83,-33 -205,-104 -259,-153c-118,-106 -173,-321 -123,-481c35,-112 104,-173 217,-192c185,-29 395,112 461,312c26,78 22,194 -10,262c-26,58 -105,150 -137,160c-65,21 67,51 216,48c307,-4 558,-160 700,-434c67,-130 95,-245 102,-415c7,-173 -11,-296 -68,-467c-158,-477 -597,-1021 -1114,-1380c-437,-304 -886,-488 -1460,-598c-93,-17 -174,-36 -179,-41c-16,-14 232,-9 355,7c983,129 1918,763 2396,1627c322,579 292,1190 -76,1559c-139,138 -319,223 -531,249c-83,10 -105,10 -185,3z" fill="#0000ff" id="svg_4"/>
   <path d="m11640,6404c-189,-51 -311,-231 -279,-411c13,-73 45,-122 105,-161c88,-59 148,-76 260,-77c96,0 103,2 175,37c89,44 168,118 206,191c34,68 42,166 19,233c-9,26 -16,49 -16,51c0,2 46,-20 103,-48c88,-46 116,-67 203,-153c90,-90 106,-112 151,-206c76,-155 88,-213 87,-410c0,-150 -3,-173 -27,-255c-199,-656 -861,-1037 -1982,-1139c-644,-59 -1231,-8 -1980,173c-88,21 -162,36 -165,34c-11,-10 39,-35 161,-83c307,-119 700,-209 1129,-257c218,-24 781,-24 1000,0c191,21 430,60 570,93c785,184 1293,619 1422,1219c7,35 12,122 12,210c-1,127 -5,165 -26,245c-59,222 -176,398 -352,527c-134,99 -277,151 -500,183c-170,23 -202,24 -276,4z" fill="#0000ff" id="svg_5"/>
   <path d="m3246,5874c-330,-80 -527,-418 -462,-793c53,-300 222,-591 511,-876c263,-260 625,-530 984,-735c155,-89 449,-235 457,-227c16,16 35,269 36,477c1,371 -38,635 -138,952c-156,494 -451,898 -802,1099c-184,105 -411,145 -586,103z" fill="#0000ff" id="svg_6"/>
   <path d="m6570,5846c-86,-24 -154,-67 -235,-150c-64,-64 -91,-101 -132,-181c-82,-160 -115,-290 -138,-540c-28,-302 -14,-556 47,-882l21,-113l46,26c450,258 780,655 889,1069c22,86 26,120 26,250c0,136 -2,157 -26,221c-84,234 -289,358 -498,300z" fill="#0000ff" id="svg_7"/>
   <path d="m7700,4353c-116,-58 -227,-213 -252,-353c-7,-36 -16,-68 -21,-71c-5,-4 -41,-10 -81,-14c-95,-9 -246,-40 -326,-66c-257,-84 -420,-262 -424,-464c-1,-91 22,-151 78,-203c55,-50 102,-66 181,-59c126,10 196,70 365,313c55,78 136,181 181,228l80,85l30,-34c108,-123 322,-63 453,128c134,194 110,446 -49,518c-62,28 -149,25 -215,-8z" fill="#0000ff" id="svg_8"/>
   <path d="m6303,3293c-94,-33 -189,-173 -200,-293c-10,-107 39,-189 125,-209c102,-22 215,55 278,192c60,133 31,262 -70,308c-49,22 -76,23 -133,2z" fill="#0000ff" id="svg_9"/>
   <path d="m2109,3019c-736,-44 -1339,-273 -1700,-645c-104,-107 -128,-136 -189,-229c-260,-399 -288,-848 -78,-1257c362,-705 1322,-1037 2323,-802c607,142 1174,504 1567,999c261,329 407,647 463,1014c13,83 -18,38 -135,-195c-63,-127 -149,-281 -191,-344c-184,-279 -401,-509 -681,-720c-504,-381 -1151,-582 -1744,-540c-646,45 -1127,312 -1337,742c-75,154 -92,227 -92,408c0,175 10,227 74,372c176,399 580,689 1166,838c268,69 471,97 794,110c573,23 1243,-49 2111,-225c330,-67 364,-72 358,-54c-6,20 -87,62 -228,118c-555,219 -1326,377 -2005,411c-220,11 -289,11 -476,-1z" fill="#0000ff" id="svg_10"/>
   <path d="m5789,2865c-101,-52 -179,-178 -187,-299c-5,-86 8,-134 50,-182c75,-86 204,-63 311,55c86,97 122,216 93,311c-9,30 -24,65 -35,77c-56,66 -149,81 -232,38z" fill="#0000ff" id="svg_11"/>
   <path d="m3330,2415c-356,-51 -644,-184 -840,-386c-75,-77 -122,-150 -158,-247c-21,-56 -25,-84 -26,-172c0,-98 2,-110 32,-175c159,-343 635,-368 1098,-57c274,185 615,524 833,830c40,57 72,105 70,107c-19,18 -332,87 -479,105c-113,13 -424,11 -530,-5z" fill="#0000ff" id="svg_12"/>
   <path d="m5388,2311c-236,-121 -410,-326 -604,-713c-94,-188 -117,-261 -118,-383c-1,-91 2,-105 28,-158c90,-185 299,-146 451,83c61,92 195,371 239,496c67,195 106,425 106,625c0,66 -3,89 -13,89c-7,0 -47,-18 -89,-39z" fill="#0000ff" id="svg_13"/>
  </g>
 </g>
</svg>